<?xml version="1.0" standalone="no"?>
<!DOCTYPE svg PUBLIC "-//W3C//DTD SVG 20010904//EN"
 "http://www.w3.org/TR/2001/REC-SVG-20010904/DTD/svg10.dtd">
<svg version="1.0" xmlns="http://www.w3.org/2000/svg"
 width="820.000000pt" height="800.000000pt" viewBox="0 0 820.000000 800.000000"
 preserveAspectRatio="xMidYMid meet">
<metadata>
Created by potrace 1.16, written by Peter Selinger 2001-2019
</metadata>
<g transform="translate(0.000000,800.000000) scale(0.100000,-0.100000)"
fill="#000000" stroke="none">
<path d="M7540 7574 c-159 -47 -372 -147 -416 -196 -49 -53 -70 -141 -50 -206
7 -20 4 -20 -49 8 -64 33 -124 39 -178 16 -78 -32 -394 -311 -427 -377 -26
-50 -26 -128 0 -179 l20 -39 -43 19 c-73 34 -184 17 -226 -33 -18 -23 -23 -22
-142 17 -147 48 -233 60 -399 60 -119 -1 -165 -6 -256 -27 -186 -43 -351 -119
-489 -226 -33 -26 -80 -61 -105 -78 -63 -43 -796 -915 -832 -989 -82 -171 -11
-404 177 -579 l54 -50 -186 -220 c-471 -560 -482 -574 -493 -615 -37 -138 110
-250 242 -184 14 8 176 191 358 409 207 245 336 392 344 388 19 -12 435 -363
441 -372 3 -5 -144 -186 -326 -403 -182 -216 -338 -406 -347 -423 -8 -16 -16
-51 -16 -77 0 -117 129 -194 238 -143 22 11 144 148 362 407 181 215 334 398
340 406 9 12 22 6 77 -37 195 -153 410 -199 570 -122 34 16 74 40 89 53 14 12
194 223 400 468 l373 446 68 134 c121 246 152 367 152 610 0 235 -32 367 -136
570 -53 103 -109 183 -187 265 l-51 53 15 49 c12 39 13 58 4 100 -6 29 -16 55
-21 58 -5 4 -9 10 -9 14 0 4 24 0 53 -10 64 -22 71 -23 133 -4 37 11 71 35
139 96 50 45 133 117 186 160 116 94 144 140 136 222 -2 29 -8 61 -12 72 -8
19 -7 19 16 -2 36 -33 92 -53 146 -53 38 0 73 12 163 55 63 31 159 69 212 86
53 17 112 40 130 52 38 25 88 116 88 160 0 116 -103 219 -216 216 -16 0 -67
-11 -114 -25z m-2095 -1365 c-117 -28 -244 -96 -353 -186 -72 -61 -164 -163
-416 -463 -368 -437 -344 -391 -249 -481 63 -60 299 -259 308 -259 3 0 16 -11
28 -24 25 -27 584 -496 591 -496 3 0 20 -15 38 -33 77 -76 175 -141 203 -135
8 2 116 125 240 273 125 149 245 292 268 319 23 27 43 52 45 56 1 3 25 31 53
61 28 30 61 74 74 99 13 25 39 71 58 102 78 129 118 331 98 489 -7 50 -10 94
-7 96 9 10 21 -116 19 -212 -3 -156 -42 -279 -147 -458 -47 -81 -684 -837
-704 -837 -10 0 -35 11 -58 24 -64 36 -1146 950 -1173 990 l-23 36 48 59 c242
294 625 742 649 760 17 11 57 44 90 72 95 79 292 168 375 168 14 0 -11 -9 -55
-20z"/>
<path d="M3764 4924 c-19 -9 -158 -166 -360 -406 -181 -215 -334 -398 -340
-406 -9 -12 -22 -6 -77 37 -195 153 -410 199 -570 122 -34 -16 -74 -40 -89
-53 -14 -12 -194 -223 -400 -468 l-373 -446 -68 -134 c-121 -246 -152 -367
-152 -610 0 -235 32 -367 136 -570 53 -103 109 -183 187 -265 l51 -53 -15 -49
c-12 -39 -13 -58 -4 -100 6 -29 16 -55 21 -58 5 -4 9 -10 9 -14 0 -4 -24 0
-52 10 -65 22 -72 23 -134 4 -37 -11 -71 -35 -139 -96 -49 -45 -133 -117 -186
-160 -116 -94 -144 -140 -136 -222 2 -29 8 -61 12 -72 8 -19 7 -19 -16 2 -36
33 -92 53 -147 53 -38 0 -71 -11 -153 -51 -57 -28 -150 -66 -207 -85 -129 -42
-155 -56 -186 -97 -107 -140 -8 -333 169 -331 103 1 428 127 514 200 60 51 90
149 67 222 -7 20 -4 20 49 -8 64 -33 124 -39 178 -16 78 32 394 311 427 377
26 50 26 128 0 179 l-20 39 43 -19 c73 -34 184 -17 226 33 18 23 23 22 142
-17 147 -48 233 -60 399 -60 119 1 165 6 256 27 186 43 351 119 489 226 33 26
80 61 105 78 63 43 796 915 832 989 82 171 11 404 -177 579 l-54 50 186 220
c471 560 482 574 493 615 37 138 -110 250 -242 184 -14 -8 -176 -191 -358
-409 -207 -245 -336 -392 -344 -388 -19 12 -435 363 -441 372 -3 5 144 186
326 403 182 216 338 407 347 423 39 74 4 183 -71 218 -44 21 -112 21 -153 1z
m-1097 -1063 c45 -23 1103 -911 1153 -968 22 -26 40 -55 38 -64 -2 -9 -150
-192 -330 -405 -352 -418 -421 -487 -576 -571 -42 -23 -117 -54 -167 -69 -77
-23 -109 -27 -220 -28 -190 -1 -332 43 -479 148 -228 162 -347 411 -333 695 8
164 43 270 149 452 18 30 181 232 363 447 356 425 329 400 402 363z"/>
</g>
</svg>
